<svg xmlns="http://www.w3.org/2000/svg" version="1.1" width="640" height="640" style="background-color:transparent;">
	<defs>
	    <linearGradient id="grad1" x1="0%" y1="0%" x2="0%" y2="100%">
	      <stop offset="0%" style="stop-color:rgb(255,80,0);stop-opacity:1" />
	      <stop offset="100%" style="stop-color:rgb(225,50,0);stop-opacity:1" />
	    </linearGradient>
	    <linearGradient id="shadow-right" x1="0%" y1="0%" x2="10%" y2="0%">
	      <stop offset="0%" style="stop-color:rgb(128,128,128);stop-opacity:1" />
	      <stop offset="100%" style="stop-color:rgb(128,128,128);stop-opacity:0" />
	    </linearGradient>
	    <linearGradient id="shadow-slanted" x1="0%" y1="0%" x2="80%" y2="80%">
	      <stop offset="0%" style="stop-color:rgb(255,255,255);stop-opacity:0" />
	      <stop offset="30%" style="stop-color:rgb(0,0,0);stop-opacity:1" />
	      <stop offset="75%" style="stop-color:rgb(128,128,128);stop-opacity:0" />
	    </linearGradient>
	    <linearGradient id="shadow-slanted2" x1="0%" y1="0%" x2="90%" y2="100%">
	      <stop offset="0%" style="stop-color:rgb(255,255,255);stop-opacity:0" />
	      <stop offset="40%" style="stop-color:rgb(0,0,0);stop-opacity:1" />
	      <stop offset="65%" style="stop-color:#fff;stop-opacity:0" />
	    </linearGradient>
	</defs>
	<circle cx="320" cy="320" r="312" fill="url(#grad1)" stroke="white" stroke-width="16" />
	<polygon points="200,440 280,440 280,360 200,200" style="fill:#fff;" />
	<polygon points="280,440 360,440 360,360 320,280 280,360" style="fill:#fff;" />
	<polygon points="360,440 440,440 440,200 360,360" style="fill:#fff;" />
	<polygon points="200,440 280,440 280,360 200,200" style="fill:url(#shadow-right);" />
	<polygon points="320,280 328,296 296,360 288,344" style="fill:url(#shadow-slanted)" />
	<polygon points="440,200 368,344 376,360 440,230" style="fill:url(#shadow-slanted2)" />
</svg>
